<svg width="1920" height="1080" viewBox="0 0 1920 1080" fill="none" xmlns="http://www.w3.org/2000/svg">
<g clip-path="url(#clip0_10387_17984)">
<rect width="1920" height="1080" fill="#0E111E"/>
<rect width="1920" height="1080" fill="url(#paint0_linear_10387_17984)" fill-opacity="0.2"/>
<path d="M1609.06 776.693C1609.06 779.976 1611.72 782.637 1615 782.637C1618.29 782.637 1620.95 779.976 1620.95 776.693C1620.95 773.411 1618.29 770.75 1615 770.75C1611.72 770.75 1609.06 773.411 1609.06 776.693Z" fill="#DDFD88" fill-opacity="0.54"/>
<path d="M1108.33 556.261C1108.33 559.544 1110.99 562.205 1114.28 562.205C1117.56 562.205 1120.22 559.544 1120.22 556.261C1120.22 552.978 1117.56 550.317 1114.28 550.317C1110.99 550.317 1108.33 552.978 1108.33 556.261Z" fill="#DDFD88" fill-opacity="0.54"/>
<path d="M1337.86 491.693C1337.86 494.976 1340.53 497.637 1343.81 497.637C1347.09 497.637 1349.75 494.976 1349.75 491.693C1349.75 488.411 1347.09 485.75 1343.81 485.75C1340.53 485.75 1337.86 488.411 1337.86 491.693Z" fill="#DDFD88" fill-opacity="0.54"/>
<path d="M345.249 550.319C345.249 553.601 347.91 556.262 351.192 556.262C354.475 556.262 357.136 553.601 357.136 550.319C357.136 547.036 354.475 544.375 351.192 544.375C347.91 544.375 345.249 547.036 345.249 550.319Z" fill="#DDFD88" fill-opacity="0.54"/>
<path d="M1026.11 319.25C1026.11 322.533 1028.77 325.194 1032.05 325.194C1035.33 325.194 1037.99 322.533 1037.99 319.25C1037.99 315.968 1035.33 313.307 1032.05 313.307C1028.77 313.307 1026.11 315.968 1026.11 319.25Z" fill="#DDFD88" fill-opacity="0.54"/>
<path d="M259.164 547.347C259.164 548.988 260.494 550.319 262.136 550.319C263.777 550.319 265.107 548.988 265.107 547.347C265.107 545.706 263.777 544.375 262.136 544.375C260.494 544.375 259.164 545.706 259.164 547.347Z" fill="#DDFD88" fill-opacity="0.54"/>
<path d="M302.167 736.072C302.167 737.713 303.497 739.044 305.139 739.044C306.78 739.044 308.11 737.713 308.11 736.072C308.11 734.431 306.78 733.1 305.139 733.1C303.497 733.1 302.167 734.431 302.167 736.072Z" fill="#DDFD88" fill-opacity="0.54"/>
<path d="M145.362 611.276C145.362 612.918 146.693 614.248 148.334 614.248C149.975 614.248 151.306 612.918 151.306 611.276C151.306 609.635 149.975 608.304 148.334 608.304C146.693 608.304 145.362 609.635 145.362 611.276Z" fill="#DDFD88" fill-opacity="0.54"/>
<path d="M837.162 770.75C837.162 772.391 838.492 773.722 840.134 773.722C841.775 773.722 843.105 772.391 843.105 770.75C843.105 769.109 841.775 767.778 840.134 767.778C838.492 767.778 837.162 769.109 837.162 770.75Z" fill="#DDFD88" fill-opacity="0.54"/>
<path d="M1244.07 553.289C1244.07 554.93 1245.4 556.261 1247.05 556.261C1248.69 556.261 1250.02 554.93 1250.02 553.289C1250.02 551.648 1248.69 550.317 1247.05 550.317C1245.4 550.317 1244.07 551.648 1244.07 553.289Z" fill="#DDFD88" fill-opacity="0.54"/>
<path d="M580.158 556.261C580.158 557.902 581.489 559.233 583.13 559.233C584.771 559.233 586.102 557.902 586.102 556.261C586.102 554.62 584.771 553.289 583.13 553.289C581.489 553.289 580.158 554.62 580.158 556.261Z" fill="#DDFD88" fill-opacity="0.54"/>
<path d="M482.104 292.505C482.104 294.146 483.435 295.476 485.076 295.476C486.717 295.476 488.048 294.146 488.048 292.505C488.048 290.863 486.717 289.533 485.076 289.533C483.435 289.533 482.104 290.863 482.104 292.505Z" fill="#DDFD88" fill-opacity="0.54"/>
<path d="M693.084 517.5C693.084 519.142 694.414 520.472 696.056 520.472C697.697 520.472 699.027 519.142 699.027 517.5C699.027 515.859 697.697 514.529 696.056 514.529C694.414 514.529 693.084 515.859 693.084 517.5Z" fill="#DDFD88" fill-opacity="0.54"/>
<path d="M699.027 582.557C699.027 584.199 700.358 585.529 701.999 585.529C703.64 585.529 704.971 584.199 704.971 582.557C704.971 580.916 703.64 579.586 701.999 579.586C700.358 579.586 699.027 580.916 699.027 582.557Z" fill="#DDFD88" fill-opacity="0.54"/>
<path d="M1002.33 499.669C1002.33 506.234 1007.65 511.557 1014.22 511.557C1020.78 511.557 1026.11 506.234 1026.11 499.669C1026.11 493.104 1020.78 487.782 1014.22 487.782C1007.65 487.782 1002.33 493.104 1002.33 499.669Z" fill="#DDFD88" fill-opacity="0.54"/>
<path d="M1701.49 541.402C1701.49 546.326 1705.48 550.318 1710.4 550.318C1715.32 550.318 1719.32 546.326 1719.32 541.402C1719.32 536.479 1715.32 532.487 1710.4 532.487C1705.48 532.487 1701.49 536.479 1701.49 541.402Z" fill="#DDFD88" fill-opacity="0.54"/>
<path d="M1197.57 307.363C1197.57 309.004 1198.9 310.335 1200.54 310.335C1202.19 310.335 1203.52 309.004 1203.52 307.363C1203.52 305.722 1202.19 304.391 1200.54 304.391C1198.9 304.391 1197.57 305.722 1197.57 307.363Z" fill="#DDFD88" fill-opacity="0.54"/>
<path d="M858.88 109.781C858.88 111.422 860.21 112.752 861.851 112.752C863.493 112.752 864.823 111.422 864.823 109.781C864.823 108.139 863.493 106.809 861.851 106.809C860.21 106.809 858.88 108.139 858.88 109.781Z" fill="#DDFD88" fill-opacity="0.54"/>
<path d="M1134.31 541.402C1134.31 546.326 1138.31 550.318 1143.23 550.318C1148.15 550.318 1152.14 546.326 1152.14 541.402C1152.14 536.479 1148.15 532.487 1143.23 532.487C1138.31 532.487 1134.31 536.479 1134.31 541.402Z" fill="#DDFD88" fill-opacity="0.54"/>
<path d="M1580 582.557C1580 587.481 1583.99 591.473 1588.92 591.473C1593.84 591.473 1597.83 587.481 1597.83 582.557C1597.83 577.634 1593.84 573.642 1588.92 573.642C1583.99 573.642 1580 577.634 1580 582.557Z" fill="#DDFD88" fill-opacity="0.54"/>
<path d="M351.192 313.307C351.192 316.589 353.853 319.25 357.136 319.25C360.418 319.25 363.079 316.589 363.079 313.307C363.079 310.024 360.418 307.363 357.136 307.363C353.853 307.363 351.192 310.024 351.192 313.307Z" fill="#DDFD88" fill-opacity="0.54"/>
<path d="M1444.69 727.157C1444.69 732.08 1448.68 736.072 1453.6 736.072C1458.53 736.072 1462.52 732.08 1462.52 727.157C1462.52 722.233 1458.53 718.241 1453.6 718.241C1448.68 718.241 1444.69 722.233 1444.69 727.157Z" fill="#DDFD88" fill-opacity="0.54"/>
<path d="M149.682 327.752C149.682 331.035 147.021 333.696 143.738 333.696C140.456 333.696 137.795 331.035 137.795 327.752C137.795 324.47 140.456 321.809 143.738 321.809C147.021 321.809 149.682 324.47 149.682 327.752Z" fill="#DDFD88" fill-opacity="0.54"/>
<path d="M650.409 107.32C650.409 110.603 647.748 113.264 644.465 113.264C641.183 113.264 638.521 110.603 638.521 107.32C638.521 104.037 641.183 101.376 644.465 101.376C647.748 101.376 650.409 104.037 650.409 107.32Z" fill="#DDFD88" fill-opacity="0.54"/>
<path d="M420.876 42.7524C420.876 46.035 418.215 48.696 414.933 48.696C411.65 48.696 408.989 46.035 408.989 42.7524C408.989 39.4699 411.65 36.8088 414.933 36.8088C418.215 36.8088 420.876 39.4699 420.876 42.7524Z" fill="#DDFD88" fill-opacity="0.54"/>
<path d="M1413.49 101.378C1413.49 104.66 1410.83 107.321 1407.55 107.321C1404.27 107.321 1401.61 104.66 1401.61 101.378C1401.61 98.0951 1404.27 95.4341 1407.55 95.4341C1410.83 95.4341 1413.49 98.0951 1413.49 101.378Z" fill="#DDFD88" fill-opacity="0.54"/>
<path d="M1696.33 231.42C1696.33 234.702 1693.67 237.363 1690.39 237.363C1687.11 237.363 1684.45 234.702 1684.45 231.42C1684.45 228.137 1687.11 225.476 1690.39 225.476C1693.67 225.476 1696.33 228.137 1696.33 231.42Z" fill="#DDFD88" fill-opacity="0.54"/>
<path d="M1786.43 95.4338C1786.43 98.7164 1783.77 101.377 1780.48 101.377C1777.2 101.377 1774.54 98.7164 1774.54 95.4338C1774.54 92.1513 1777.2 89.4902 1780.48 89.4902C1783.77 89.4902 1786.43 92.1513 1786.43 95.4338Z" fill="#DDFD88" fill-opacity="0.54"/>
<path d="M1499.58 98.4059C1499.58 100.047 1498.25 101.378 1496.6 101.378C1494.96 101.378 1493.63 100.047 1493.63 98.4059C1493.63 96.7646 1494.96 95.4341 1496.6 95.4341C1498.25 95.4341 1499.58 96.7646 1499.58 98.4059Z" fill="#DDFD88" fill-opacity="0.54"/>
<path d="M1456.57 287.131C1456.57 288.772 1455.24 290.103 1453.6 290.103C1451.96 290.103 1450.63 288.772 1450.63 287.131C1450.63 285.49 1451.96 284.159 1453.6 284.159C1455.24 284.159 1456.57 285.49 1456.57 287.131Z" fill="#DDFD88" fill-opacity="0.54"/>
<path d="M1613.38 162.335C1613.38 163.977 1612.05 165.307 1610.41 165.307C1608.77 165.307 1607.44 163.977 1607.44 162.335C1607.44 160.694 1608.77 159.364 1610.41 159.364C1612.05 159.364 1613.38 160.694 1613.38 162.335Z" fill="#DDFD88" fill-opacity="0.54"/>
<path d="M1817.38 414.811C1817.38 416.452 1816.05 417.782 1814.41 417.782C1812.77 417.782 1811.44 416.452 1811.44 414.811C1811.44 413.169 1812.77 411.839 1814.41 411.839C1816.05 411.839 1817.38 413.169 1817.38 414.811Z" fill="#DDFD88" fill-opacity="0.54"/>
<path d="M921.578 321.809C921.578 323.45 920.248 324.781 918.607 324.781C916.965 324.781 915.635 323.45 915.635 321.809C915.635 320.168 916.965 318.837 918.607 318.837C920.248 318.837 921.578 320.168 921.578 321.809Z" fill="#DDFD88" fill-opacity="0.54"/>
<path d="M514.667 104.348C514.667 105.99 513.337 107.32 511.695 107.32C510.054 107.32 508.724 105.99 508.724 104.348C508.724 102.707 510.054 101.376 511.695 101.376C513.337 101.376 514.667 102.707 514.667 104.348Z" fill="#DDFD88" fill-opacity="0.54"/>
<path d="M1178.58 107.32C1178.58 108.961 1177.25 110.292 1175.61 110.292C1173.97 110.292 1172.64 108.961 1172.64 107.32C1172.64 105.679 1173.97 104.348 1175.61 104.348C1177.25 104.348 1178.58 105.679 1178.58 107.32Z" fill="#DDFD88" fill-opacity="0.54"/>
<path d="M914.891 519.023C914.891 520.665 913.56 521.995 911.919 521.995C910.278 521.995 908.947 520.665 908.947 519.023C908.947 517.382 910.278 516.052 911.919 516.052C913.56 516.052 914.891 517.382 914.891 519.023Z" fill="#DDFD88" fill-opacity="0.54"/>
<path d="M1065.66 68.5594C1065.66 70.2007 1064.33 71.5312 1062.69 71.5312C1061.05 71.5312 1059.71 70.2007 1059.71 68.5594C1059.71 66.9182 1061.05 65.5876 1062.69 65.5876C1064.33 65.5876 1065.66 66.9182 1065.66 68.5594Z" fill="#DDFD88" fill-opacity="0.54"/>
<path d="M870.766 133.617C870.766 135.258 869.435 136.589 867.794 136.589C866.153 136.589 864.822 135.258 864.822 133.617C864.822 131.976 866.153 130.645 867.794 130.645C869.435 130.645 870.766 131.976 870.766 133.617Z" fill="#DDFD88" fill-opacity="0.54"/>
<path d="M1450.63 44.7851C1450.63 51.3502 1445.31 56.6723 1438.74 56.6723C1432.18 56.6723 1426.85 51.3502 1426.85 44.7851C1426.85 38.22 1432.18 32.8979 1438.74 32.8979C1445.31 32.8979 1450.63 38.22 1450.63 44.7851Z" fill="#DDFD88" fill-opacity="0.54"/>
<path d="M57.2555 92.4615C57.2555 97.3853 53.264 101.377 48.3402 101.377C43.4163 101.377 39.4248 97.3853 39.4248 92.4615C39.4248 87.5377 43.4163 83.5461 48.3402 83.5461C53.264 83.5461 57.2555 87.5377 57.2555 92.4615Z" fill="#DDFD88" fill-opacity="0.54"/>
<path d="M493.99 353.12C493.99 354.762 492.66 356.092 491.019 356.092C489.377 356.092 488.047 354.762 488.047 353.12C488.047 351.479 489.377 350.149 491.019 350.149C492.66 350.149 493.99 351.479 493.99 353.12Z" fill="#DDFD88" fill-opacity="0.54"/>
<path d="M592.044 672.015C592.044 673.657 590.714 674.987 589.072 674.987C587.431 674.987 586.101 673.657 586.101 672.015C586.101 670.374 587.431 669.044 589.072 669.044C590.714 669.044 592.044 670.374 592.044 672.015Z" fill="#DDFD88" fill-opacity="0.54"/>
<path d="M624.427 92.4615C624.427 97.3853 620.436 101.377 615.512 101.377C610.588 101.377 606.597 97.3853 606.597 92.4615C606.597 87.5377 610.588 83.5461 615.512 83.5461C620.436 83.5461 624.427 87.5377 624.427 92.4615Z" fill="#DDFD88" fill-opacity="0.54"/>
<path d="M178.737 133.617C178.737 138.54 174.745 142.532 169.822 142.532C164.898 142.532 160.906 138.54 160.906 133.617C160.906 128.693 164.898 124.701 169.822 124.701C174.745 124.701 178.737 128.693 178.737 133.617Z" fill="#DDFD88" fill-opacity="0.54"/>
<path d="M1313.11 62.6155C1313.11 65.898 1310.45 68.559 1307.17 68.559C1303.89 68.559 1301.23 65.898 1301.23 62.6155C1301.23 59.3329 1303.89 56.6719 1307.17 56.6719C1310.45 56.6719 1313.11 59.3329 1313.11 62.6155Z" fill="#DDFD88" fill-opacity="0.54"/>
<path d="M1646.39 321.735C1646.39 326.659 1642.4 330.65 1637.47 330.65C1632.55 330.65 1628.56 326.659 1628.56 321.735C1628.56 316.811 1632.55 312.82 1637.47 312.82C1642.4 312.82 1646.39 316.811 1646.39 321.735Z" fill="#DDFD88" fill-opacity="0.54"/>
<path d="M1817.38 110.292C1817.38 115.216 1813.39 119.207 1808.47 119.207C1803.54 119.207 1799.55 115.216 1799.55 110.292C1799.55 105.368 1803.54 101.376 1808.47 101.376C1813.39 101.376 1817.38 105.368 1817.38 110.292Z" fill="#DDFD88" fill-opacity="0.54"/>
</g>
<defs>
<linearGradient id="paint0_linear_10387_17984" x1="1047.01" y1="385.885" x2="1134.88" y2="1108.69" gradientUnits="userSpaceOnUse">
<stop stop-opacity="0"/>
<stop offset="0.968213" stop-color="#77F615"/>
</linearGradient>
<clipPath id="clip0_10387_17984">
<rect width="1920" height="1080" fill="white"/>
</clipPath>
</defs>
</svg>
