<svg width="1081" height="1081" viewBox="0 0 1081 1081" fill="none" xmlns="http://www.w3.org/2000/svg">
<g clip-path="url(#clip0_10387_17849)">
<rect width="1080" height="1080" transform="translate(0.533203 0.570312)" fill="#0E111E"/>
<rect width="1080" height="1080" transform="translate(0.533203 0.570312)" fill="url(#paint0_linear_10387_17849)" fill-opacity="0.2"/>
<path d="M194.742 1000.36H183.38L195.613 961.57H210.026L222.173 1000.36H209.91L207.963 992.605H196.747L194.742 1000.36ZM202.704 971.034H202.152L198.694 984.647H206.075L202.704 971.034Z" fill="white"/>
<path d="M166.085 961.57C169.336 961.57 172.043 962.129 174.204 963.247C176.384 964.346 178.019 965.89 179.109 967.88C180.218 969.85 180.772 972.142 180.772 974.757C180.772 976.898 180.375 978.726 179.58 980.242C178.786 981.739 177.862 982.942 176.809 983.851C175.775 984.761 174.879 985.386 174.121 985.727L181.576 1000.36H169.521L163.369 987.177H159.822V1000.36H149.098V961.57H166.085ZM159.822 979.588H164.394C165.798 979.588 166.999 979.191 167.997 978.395C168.995 977.599 169.493 976.377 169.493 974.729C169.493 973.042 168.976 971.782 167.941 970.949C166.925 970.115 165.752 969.698 164.422 969.698H159.822V979.588Z" fill="white"/>
<path d="M140.978 1000.36H131.055V961.57H140.978V1000.36Z" fill="white"/>
<path d="M90.9787 1000.36H80.5332V961.57H92.829L102.021 980.157H102.409L111.631 961.57H123.837V1000.36H113.242V978.082H112.705L105.304 993.429H98.9769L91.5158 978.082H90.9787V1000.36Z" fill="white"/>
<path d="M1188.91 693.661C1198.74 693.895 1216.66 737.883 1224.4 759.847C1252.78 792.075 1313.39 855.365 1328.79 850.697C1348.04 844.863 1349.63 792.612 1360.61 774.725C1371.59 756.838 1367.18 846.577 1352.08 878.75C1336.97 910.923 1333.17 937.566 1341.93 968.006C1350.69 998.445 1224.85 1067.37 1121.17 1138.32C1017.49 1209.27 665.087 1204.04 602.362 1183.01C539.637 1161.99 448.253 1102.62 464.057 1093.88C479.86 1085.13 536.496 1019.34 563.379 1009.07C618.982 987.817 675.224 995.536 739.195 992.365C803.165 989.195 870.28 937.818 852.45 869.129C846.203 845.064 802.871 773.888 764.99 791.921C727.109 809.953 755.025 856.655 756.003 861.919C756.981 867.184 737.459 848.535 722.534 824.422C707.61 800.309 730.257 746.935 783.178 739.065C836.087 731.197 916.184 841.296 915.633 825.924C914.442 792.663 893.565 763.593 826.782 730.964C736.123 686.67 677.742 814.186 676.32 818.839C671.926 833.225 667.121 824.396 661.517 800.149C655.913 775.902 683.777 715.916 676.513 726.494C669.25 737.072 662.27 711.421 662.82 702.459C663.37 693.498 676.087 674.523 666.238 671.185C656.39 667.847 643.157 662.184 644.364 646.824C645.571 631.465 654.415 635.36 668.198 632.061C681.982 628.762 671.037 627.473 668.212 610.278C665.387 593.084 696.534 579.915 713.978 574.459C731.422 569.004 755.834 569.267 767.67 557.471C779.506 545.674 787.455 536.815 803.844 535.616C820.233 534.417 814.131 559.176 842.8 560.494C871.469 561.813 866.867 539.042 890.204 529.539C913.54 520.035 939.507 552.495 960.514 536.412C981.521 520.328 1003.03 534.787 998.026 541.624C993.021 548.46 1008.64 557.003 1036.24 568.487C1063.84 579.97 1066.94 567.543 1065.63 581.311C1064.33 595.079 1135.1 632.812 1147.4 650.492C1159.7 668.173 1172.43 663.876 1173.27 675.314C1174.1 686.751 1176.62 693.368 1188.91 693.661Z" fill="#AEED0D"/>
<path d="M905.633 661.825C886.316 636.326 861.665 625.73 834.325 629.8C857.426 618.236 914.226 600.048 956.624 619.805C1002.55 641.205 1006.84 719.607 1007.82 733.724C1008.1 734.27 1008.23 734.772 1008.18 735.228C1008.05 736.547 1007.97 735.898 1007.82 733.724C1001.99 722.425 928.666 692.23 905.633 661.825Z" fill="#7DAE00"/>
<path d="M1075.25 627.65C1067.65 621.269 978.166 607.715 968.07 616.085C965.406 622.31 1029.24 664.391 1036.35 668.113C1045.24 672.766 1102.08 725.813 1110.73 747.701C1119.38 769.589 1215.68 806.712 1214.44 800.065L1206.83 759.075C1205.9 754.089 1207.77 730.246 1183.03 729.686C1158.28 729.126 1176.64 719.985 1172.98 697.171C1169.31 674.357 1150.74 666.919 1115.38 658.589C1080.02 650.258 1084.76 635.626 1075.25 627.65Z" fill="#7DAE00"/>
<path d="M687.681 741.375C671.653 809.595 661.522 734.27 671.244 721.107C683.396 704.653 713.452 659.017 714.207 646.708C714.963 634.4 743.248 639.286 750.34 628.335C757.432 617.385 747.909 598.874 783.056 602.484C818.203 606.095 813.468 580.609 837.959 584.172C862.45 587.734 874.107 593.173 878.146 576.706C882.185 560.238 917.051 548.691 927.637 553.822C938.223 558.954 922.184 573.594 938.96 576.562C955.735 579.529 975.724 583.422 979.835 597.361C983.945 611.3 1000.62 621.892 1013.36 619.525C1026.1 617.157 1025.96 627.323 1031 638.049C1036.03 648.775 1058.48 644.096 1060.76 656.349C1063.04 668.601 1068.26 693.994 1080.2 692.789C1092.15 691.584 1090.69 705.545 1103.65 715.304C1116.62 725.063 1135.92 722.493 1138.53 731.132C1141.15 739.772 1134.01 747.691 1149.8 750.84C1165.6 753.99 1150.79 742.544 1178.97 741.366C1207.14 740.188 1209.52 744.815 1214.56 755.541C1219.59 766.267 1215.59 780.193 1232.54 770.453C1248.65 761.196 1238.43 777.896 1254.2 783.414C1247.54 775.808 1243.2 769.151 1241.32 765.547C1239.74 758.412 1241.58 743.943 1261.61 743.144C1286.66 742.146 1303.18 755.827 1307.88 768.623C1312.59 781.42 1309.43 790.159 1321.11 794.199C1327.33 796.351 1332.69 799.269 1336.11 801.569C1345.72 800.423 1347.4 801.99 1347.74 803.807C1348.19 806.258 1194.79 913.849 1073.48 812.169C952.179 710.489 1020.93 709.379 979.895 671.371C938.865 633.364 899.482 617.865 869.586 623.419C839.691 628.973 831.774 629.888 824.409 638.607C817.045 647.326 802.19 640.284 797.069 645.32C791.949 650.355 798.333 656.519 787.942 656.272C777.55 656.024 773.312 643.471 762.06 656.18C750.808 668.888 740.888 685.778 727.98 688.788C717.653 691.197 696.812 724.85 687.681 741.375Z" fill="#F3FFD3"/>
<path d="M672.472 554.652C672.976 557.367 671.184 559.976 668.47 560.48C665.755 560.985 663.146 559.193 662.642 556.478C662.137 553.764 663.929 551.154 666.644 550.65C669.358 550.146 671.967 551.938 672.472 554.652Z" fill="#DDFD88"/>
<path d="M1087.35 554.057C1088.11 558.128 1085.42 562.042 1081.35 562.799C1077.28 563.555 1073.37 560.868 1072.61 556.796C1071.85 552.724 1074.54 548.81 1078.61 548.054C1082.68 547.297 1086.6 549.985 1087.35 554.057Z" fill="#DDFD88"/>
<path d="M856.193 546.825C856.949 550.897 854.262 554.811 850.19 555.567C846.118 556.324 842.204 553.636 841.448 549.565C840.691 545.493 843.379 541.579 847.451 540.822C851.523 540.066 855.437 542.753 856.193 546.825Z" fill="#DDFD88"/>
<path d="M660.35 686.513C661.107 690.585 658.419 694.499 654.347 695.255C650.276 696.012 646.361 693.324 645.605 689.252C644.849 685.18 647.536 681.266 651.608 680.51C655.68 679.754 659.594 682.441 660.35 686.513Z" fill="#DDFD88"/>
<path d="M640.375 715.831C640.627 717.189 639.731 718.493 638.374 718.745C637.016 718.998 635.712 718.102 635.459 716.744C635.207 715.387 636.103 714.082 637.46 713.83C638.818 713.578 640.122 714.474 640.375 715.831Z" fill="#DDFD88"/>
<path d="M658.205 623.614C658.457 624.971 657.561 626.275 656.204 626.528C654.846 626.78 653.542 625.884 653.29 624.527C653.037 623.169 653.933 621.865 655.291 621.613C656.648 621.36 657.952 622.256 658.205 623.614Z" fill="#DDFD88"/>
<path d="M1054.93 565.165C1055.18 566.523 1054.29 567.827 1052.93 568.079C1051.57 568.332 1050.27 567.436 1050.02 566.078C1049.76 564.721 1050.66 563.416 1052.02 563.164C1053.37 562.912 1054.68 563.808 1054.93 565.165Z" fill="#DDFD88"/>
<path d="M967.377 520.415C967.63 521.772 966.734 523.076 965.377 523.329C964.019 523.581 962.715 522.685 962.462 521.328C962.21 519.97 963.106 518.666 964.463 518.414C965.821 518.161 967.125 519.057 967.377 520.415Z" fill="#DDFD88"/>
<path d="M989.561 516.293C989.813 517.651 988.917 518.955 987.56 519.208C986.203 519.46 984.898 518.564 984.646 517.207C984.394 515.849 985.29 514.545 986.647 514.292C988.004 514.04 989.309 514.936 989.561 516.293Z" fill="#DDFD88"/>
<path d="M981.871 502.258C982.123 503.615 981.227 504.92 979.87 505.172C978.512 505.424 977.208 504.528 976.956 503.171C976.703 501.814 977.599 500.509 978.957 500.257C980.314 500.005 981.619 500.901 981.871 502.258Z" fill="#DDFD88"/>
<path d="M761.194 838.162C761.446 839.519 760.55 840.824 759.193 841.076C757.836 841.328 756.531 840.432 756.279 839.075C756.027 837.717 756.923 836.413 758.28 836.161C759.637 835.908 760.942 836.804 761.194 838.162Z" fill="#DDFD88"/>
<path d="M771.857 813.443C772.614 817.515 769.926 821.429 765.854 822.185C761.782 822.942 757.868 820.254 757.112 816.182C756.355 812.111 759.043 808.197 763.115 807.44C767.187 806.684 771.101 809.371 771.857 813.443Z" fill="#DDFD88"/>
<path d="M648.403 772.738C649.159 776.809 646.472 780.723 642.4 781.48C638.328 782.236 634.414 779.549 633.658 775.477C632.901 771.405 635.589 767.491 639.661 766.735C643.732 765.978 647.647 768.666 648.403 772.738Z" fill="#DDFD88"/>
<path d="M862.465 580.582C862.718 581.939 861.822 583.243 860.464 583.496C859.107 583.748 857.802 582.852 857.55 581.495C857.298 580.137 858.194 578.833 859.551 578.581C860.909 578.328 862.213 579.224 862.465 580.582Z" fill="#F3FFD3"/>
<path d="M892.628 635.734C892.881 637.091 891.985 638.396 890.627 638.648C889.27 638.9 887.966 638.004 887.713 636.647C887.461 635.29 888.357 633.985 889.714 633.733C891.072 633.481 892.376 634.377 892.628 635.734Z" fill="#F3FFD3"/>
<path d="M736.257 621.825C736.761 624.54 734.969 627.149 732.255 627.654C729.54 628.158 726.931 626.366 726.427 623.652C725.922 620.937 727.714 618.328 730.429 617.823C733.143 617.319 735.753 619.111 736.257 621.825Z" fill="#F3FFD3"/>
<path d="M718.853 630.431C719.105 631.789 718.209 633.093 716.852 633.345C715.495 633.598 714.19 632.702 713.938 631.345C713.686 629.987 714.582 628.683 715.939 628.43C717.296 628.178 718.601 629.074 718.853 630.431Z" fill="#F3FFD3"/>
<path d="M907.169 874.992C915.476 837.718 885.712 809.419 869.791 799.929C859.881 801.77 894.962 848.703 894.428 877.359C893.894 906.014 816.961 976.686 827.577 974.714C838.194 972.741 896.785 921.585 907.169 874.992Z" fill="#7DAE00"/>
<path d="M940.428 1022.55C909.744 1045.28 871.793 1029.58 856.654 1018.89C854.31 1009.09 911.448 1022.07 937.415 1009.94C963.382 997.812 996.702 898.801 999.213 909.304C1001.72 919.806 978.784 994.127 940.428 1022.55Z" fill="#7DAE00"/>
<path d="M717.907 740.067C714.201 744.179 711.063 748.109 708.618 751.528C710.038 748.887 713.037 744.91 717.907 740.067C730.695 725.881 750.26 709.53 771.55 704.532C774.014 703.355 776.559 702.181 779.188 701.012C819.613 683.037 856.379 717.567 872.724 735.469C877.234 738.668 880.196 741.658 881.362 744.306C882.717 747.385 879.449 742.834 872.724 735.469C859.244 725.909 831.934 714.489 797.394 704.789C788.718 702.353 779.998 702.548 771.55 704.532C744.719 717.345 727.604 730.424 717.907 740.067Z" fill="#7DAE00"/>
<path d="M1057.08 716.751C1054.62 700.639 1024.66 694.492 1009.99 693.432C993.394 701.192 1043.41 707.932 1040.29 719.871C1037.16 731.809 1058.99 755.813 1078.59 764.198C1098.18 772.582 1095.18 785.166 1123.42 811.319C1151.66 837.472 1158.62 799.435 1131.23 795.838C1103.84 792.242 1100.47 756.124 1076.43 752.573C1052.38 749.023 1060.15 736.891 1057.08 716.751Z" fill="#DDFD88"/>
<path d="M969.562 884.348C989.587 838.71 945.89 783.253 921.539 761.229C914.524 753.009 902.279 734.286 909.42 725.164C918.346 713.761 970.51 774.234 997.955 810.064C1025.4 845.894 976.148 919.801 935.617 972.392C895.085 1024.98 881.99 1022.18 885.129 999.586C888.268 976.997 944.53 941.394 969.562 884.348Z" fill="#7DAE00"/>
<path d="M804.562 749.033C792.839 741.407 751.256 765.092 738.502 770.163C733.155 772.288 729.291 771.811 730.718 770.628C731.531 769.704 759.138 741.391 781.764 739.141C810.292 736.303 828.325 753.071 826.844 752.473C825.609 751.974 816.285 756.659 804.562 749.033Z" fill="#7DAE00"/>
<path d="M726.683 584.647C708.515 584.837 693.874 598.019 703.664 607.693C714.272 612.092 715.566 598.009 718.431 593.456C722.013 587.766 749.584 588.442 753.902 588.799C758.221 589.157 786.837 578.815 788.064 570.856C789.292 562.897 804.917 558.736 799.764 558.556C794.611 558.376 785.264 560.112 781.989 566.978C778.714 573.843 749.393 584.409 726.683 584.647Z" fill="#7DAE00"/>
<path d="M32.4639 204.335C32.4639 206.604 30.6249 208.443 28.3564 208.443C26.088 208.443 24.249 206.604 24.249 204.335C24.249 202.067 26.088 200.228 28.3564 200.228C30.6249 200.228 32.4639 202.067 32.4639 204.335Z" fill="#DDFD88" fill-opacity="0.54"/>
<path d="M378.501 52.0012C378.501 54.2697 376.662 56.1086 374.394 56.1086C372.125 56.1086 370.286 54.2697 370.286 52.0012C370.286 49.7328 372.125 47.8938 374.394 47.8938C376.662 47.8938 378.501 49.7328 378.501 52.0012Z" fill="#DDFD88" fill-opacity="0.54"/>
<path d="M219.878 7.38037C219.878 9.64884 218.039 11.4878 215.771 11.4878C213.502 11.4878 211.663 9.64884 211.663 7.38037C211.663 5.11191 213.502 3.27295 215.771 3.27295C218.039 3.27295 219.878 5.11191 219.878 7.38037Z" fill="#DDFD88" fill-opacity="0.54"/>
<path d="M905.845 47.8945C905.845 50.163 904.006 52.002 901.737 52.002C899.469 52.002 897.63 50.163 897.63 47.8945C897.63 45.6261 899.469 43.7871 901.737 43.7871C904.006 43.7871 905.845 45.6261 905.845 47.8945Z" fill="#DDFD88" fill-opacity="0.54"/>
<path d="M965.335 45.8408C965.335 46.9751 964.415 47.8945 963.281 47.8945C962.147 47.8945 961.228 46.9751 961.228 45.8408C961.228 44.7066 962.147 43.7871 963.281 43.7871C964.415 43.7871 965.335 44.7066 965.335 45.8408Z" fill="#DDFD88" fill-opacity="0.54"/>
<path d="M935.617 176.263C935.617 177.397 934.698 178.317 933.563 178.317C932.429 178.317 931.51 177.397 931.51 176.263C931.51 175.129 932.429 174.209 933.563 174.209C934.698 174.209 935.617 175.129 935.617 176.263Z" fill="#DDFD88" fill-opacity="0.54"/>
<path d="M1043.98 90.0205C1043.98 91.1547 1043.06 92.0742 1041.93 92.0742C1040.79 92.0742 1039.87 91.1547 1039.87 90.0205C1039.87 88.8863 1040.79 87.9668 1041.93 87.9668C1043.06 87.9668 1043.98 88.8863 1043.98 90.0205Z" fill="#DDFD88" fill-opacity="0.54"/>
<path d="M565.898 200.228C565.898 201.362 564.979 202.282 563.845 202.282C562.71 202.282 561.791 201.362 561.791 200.228C561.791 199.094 562.71 198.174 563.845 198.174C564.979 198.174 565.898 199.094 565.898 200.228Z" fill="#DDFD88" fill-opacity="0.54"/>
<path d="M284.694 49.9475C284.694 51.0817 283.775 52.0012 282.641 52.0012C281.506 52.0012 280.587 51.0817 280.587 49.9475C280.587 48.8133 281.506 47.8938 282.641 47.8938C283.775 47.8938 284.694 48.8133 284.694 49.9475Z" fill="#DDFD88" fill-opacity="0.54"/>
<path d="M743.506 52.0012C743.506 53.1355 742.586 54.0549 741.452 54.0549C740.318 54.0549 739.398 53.1355 739.398 52.0012C739.398 50.867 740.318 49.9475 741.452 49.9475C742.586 49.9475 743.506 50.867 743.506 52.0012Z" fill="#DDFD88" fill-opacity="0.54"/>
<path d="M561.276 336.517C561.276 337.651 560.357 338.57 559.223 338.57C558.088 338.57 557.169 337.651 557.169 336.517C557.169 335.382 558.088 334.463 559.223 334.463C560.357 334.463 561.276 335.382 561.276 336.517Z" fill="#DDFD88" fill-opacity="0.54"/>
<path d="M665.467 25.2148C665.467 26.3491 664.547 27.2686 663.413 27.2686C662.279 27.2686 661.359 26.3491 661.359 25.2148C661.359 24.0806 662.279 23.1611 663.413 23.1611C664.547 23.1611 665.467 24.0806 665.467 25.2148Z" fill="#DDFD88" fill-opacity="0.54"/>
<path d="M530.783 70.1741C530.783 71.3083 529.864 72.2278 528.729 72.2278C527.595 72.2278 526.676 71.3083 526.676 70.1741C526.676 69.0398 527.595 68.1204 528.729 68.1204C529.864 68.1204 530.783 69.0398 530.783 70.1741Z" fill="#DDFD88" fill-opacity="0.54"/>
<path d="M931.508 8.78516C931.508 13.3221 927.83 17 923.293 17C918.756 17 915.078 13.3221 915.078 8.78516C915.078 4.24822 918.756 0.570312 923.293 0.570312C927.83 0.570312 931.508 4.24822 931.508 8.78516Z" fill="#DDFD88" fill-opacity="0.54"/>
<path d="M270.405 221.866C270.405 223 269.486 223.92 268.352 223.92C267.217 223.92 266.298 223 266.298 221.866C266.298 220.732 267.217 219.812 268.352 219.812C269.486 219.812 270.405 220.732 270.405 221.866Z" fill="#DDFD88" fill-opacity="0.54"/>
<path d="M312.724 319.375C312.724 320.509 311.804 321.429 310.67 321.429C309.536 321.429 308.616 320.509 308.616 319.375C308.616 318.241 309.536 317.321 310.67 317.321C311.804 317.321 312.724 318.241 312.724 319.375Z" fill="#DDFD88" fill-opacity="0.54"/>
<path d="M360.546 41.7329C360.546 45.1356 357.787 47.894 354.385 47.894C350.982 47.894 348.224 45.1356 348.224 41.7329C348.224 38.3302 350.982 35.5718 354.385 35.5718C357.787 35.5718 360.546 38.3302 360.546 41.7329Z" fill="#DDFD88" fill-opacity="0.54"/>
<path d="M52.543 70.1738C52.543 73.5765 49.7845 76.335 46.3818 76.335C42.9791 76.335 40.2207 73.5765 40.2207 70.1738C40.2207 66.7711 42.9791 64.0127 46.3818 64.0127C49.7845 64.0127 52.543 66.7711 52.543 70.1738Z" fill="#DDFD88" fill-opacity="0.54"/>
<path d="M836.476 21.1072C836.476 23.3756 834.637 25.2146 832.368 25.2146C830.1 25.2146 828.261 23.3756 828.261 21.1072C828.261 18.8387 830.1 16.9998 832.368 16.9998C834.637 16.9998 836.476 18.8387 836.476 21.1072Z" fill="#DDFD88" fill-opacity="0.54"/>
<path d="M1066.79 200.177C1066.79 203.579 1064.03 206.338 1060.63 206.338C1057.23 206.338 1054.47 203.579 1054.47 200.177C1054.47 196.774 1057.23 194.016 1060.63 194.016C1064.03 194.016 1066.79 196.774 1066.79 200.177Z" fill="#DDFD88" fill-opacity="0.54"/>
</g>
<defs>
<linearGradient id="paint0_linear_10387_17849" x1="571.858" y1="-36.304" x2="1058.47" y2="1520.69" gradientUnits="userSpaceOnUse">
<stop stop-opacity="0"/>
<stop offset="0.717689" stop-color="#77F615"/>
</linearGradient>
<clipPath id="clip0_10387_17849">
<rect width="1080" height="1080" fill="white" transform="translate(0.533203 0.570312)"/>
</clipPath>
</defs>
</svg>
