<svg width="81" height="81" viewBox="0 0 81 81" fill="none" xmlns="http://www.w3.org/2000/svg">
<path d="M80.125 40.1602C80.125 62.2515 62.2164 80.1602 40.125 80.1602C18.0336 80.1602 0.125 62.2515 0.125 40.1602C0.125 18.0688 18.0336 0.160156 40.125 0.160156C62.2164 0.160156 80.125 18.0688 80.125 40.1602ZM11.8847 40.1602C11.8847 55.7569 24.5283 68.4005 40.125 68.4005C55.7217 68.4005 68.3653 55.7569 68.3653 40.1602C68.3653 24.5634 55.7217 11.9198 40.125 11.9198C24.5283 11.9198 11.8847 24.5634 11.8847 40.1602Z" fill="url(#paint0_angular_11292_2366)"/>
<circle cx="40.125" cy="74.1602" r="6" fill="#AEED0D"/>
<defs>
<radialGradient id="paint0_angular_11292_2366" cx="1" cy="1" r="1" gradientUnits="userSpaceOnUse" gradientTransform="translate(40.125 40.1602) rotate(90) scale(40)">
<stop stop-color="#AEED0D"/>
<stop offset="1" stop-color="white" stop-opacity="0"/>
</radialGradient>
</defs>
</svg>
