<svg width="20" height="21" viewBox="0 0 20 21" fill="none" xmlns="http://www.w3.org/2000/svg">
<path fill-rule="evenodd" clip-rule="evenodd" d="M14.1081 9.603C14.1081 12.4689 11.7848 14.7922 8.91892 14.7922C6.05301 14.7922 3.72973 12.4689 3.72973 9.603C3.72973 6.73709 6.05301 4.41381 8.91892 4.41381C11.7848 4.41381 14.1081 6.73709 14.1081 9.603ZM12.8077 15.3265C11.6995 16.0809 10.3607 16.5219 8.91892 16.5219C5.09771 16.5219 2 13.4242 2 9.603C2 5.78179 5.09771 2.68408 8.91892 2.68408C12.7401 2.68408 15.8378 5.78179 15.8378 9.603C15.8378 11.0448 15.3968 12.3836 14.6424 13.4918L17.62 16.4695C18.1267 16.9761 18.1267 17.7975 17.62 18.3041C17.1134 18.8107 16.292 18.8107 15.7854 18.3041L12.8077 15.3265Z" fill="white" fill-opacity="0.24"/>
</svg>
