<svg width="615" xmlns="http://www.w3.org/2000/svg" height="800" fill="none"><defs><clipPath id="a" class="frame-clip frame-clip-def"><rect rx="0" ry="0" width="615" height="800" transform="matrix(1.000000, 0.000000, 0.000000, 1.000000, 0.000000, 0.000000)"/></clipPath></defs><g class="frame-container-wrapper"><g class="frame-container-blur"><g clip-path="url(#a)" class="frame-container-shadows"><g class="fills"><rect rx="0" ry="0" width="615" height="800" transform="matrix(1.000000, 0.000000, 0.000000, 1.000000, 0.000000, 0.000000)" class="frame-background"/></g><g class="frame-children"><defs><filter id="b" x="-1.122" y="-1.123" width="3.244" height="3.246" filterUnits="objectBoundingBox" color-interpolation-filters="sRGB"><feFlood flood-opacity="0" result="BackgroundImageFix"/><feBlend in="SourceGraphic" in2="BackgroundImageFix" result="shape"/><feGaussianBlur stdDeviation="94.034" result="filter_276bf992-d085-80a6-8006-08c9c029947e"/></filter></defs><ellipse cx="588.822" cy="671.727" rx="83.822" ry="83.727" transform="matrix(1.000000, 0.000000, 0.000000, 1.000000, 0.000000, 0.000000)" filter="url(#b)" style="fill: rgb(255, 238, 0); fill-opacity: 1;" class="fills"/><defs><filter id="c" x="-1.122" y="-1.123" width="3.244" height="3.246" filterUnits="objectBoundingBox" color-interpolation-filters="sRGB"><feFlood flood-opacity="0" result="BackgroundImageFix"/><feBlend in="SourceGraphic" in2="BackgroundImageFix" result="shape"/><feGaussianBlur stdDeviation="94.034" result="filter_276bf992-d085-80a6-8006-08c9c029947e"/></filter></defs><ellipse cx="578.822" cy="231.727" rx="83.822" ry="83.727" transform="matrix(1.000000, 0.000000, 0.000000, 1.000000, 0.000000, 0.000000)" filter="url(#c)" style="fill: rgb(236, 140, 120); fill-opacity: 1;" class="fills"/><defs><filter id="d" x="-.873" y="-.875" width="2.745" height="2.75" filterUnits="objectBoundingBox" color-interpolation-filters="sRGB"><feFlood flood-opacity="0" result="BackgroundImageFix"/><feBlend in="SourceGraphic" in2="BackgroundImageFix" result="shape"/><feGaussianBlur stdDeviation="100.347" result="filter_276bf992-d085-80a6-8006-08c9d631fdae"/></filter></defs><ellipse cx="115.002" cy="-41.055" rx="115.002" ry="114.67" transform="matrix(1.000000, 0.000000, 0.000000, 1.000000, 0.000000, 0.000000)" filter="url(#d)" style="fill: rgb(204, 0, 255); fill-opacity: 1;" class="fills"/><defs><filter id="e" x="-1.121" y="-1.123" width="3.243" height="3.245" filterUnits="objectBoundingBox" color-interpolation-filters="sRGB"><feFlood flood-opacity="0" result="BackgroundImageFix"/><feBlend in="SourceGraphic" in2="BackgroundImageFix" result="shape"/><feGaussianBlur stdDeviation="100.347" result="filter_276bf992-d085-80a6-8006-08c9d631fdae"/></filter></defs><ellipse cx="10.491" cy="501.39" rx="89.491" ry="89.39" transform="matrix(1.000000, 0.000000, 0.000000, 1.000000, 0.000000, 0.000000)" filter="url(#e)" style="fill: rgb(0, 255, 34); fill-opacity: 1;" class="fills"/><defs><filter id="f" x="-1.121" y="-1.123" width="3.243" height="3.245" filterUnits="objectBoundingBox" color-interpolation-filters="sRGB"><feFlood flood-opacity="0" result="BackgroundImageFix"/><feBlend in="SourceGraphic" in2="BackgroundImageFix" result="shape"/><feGaussianBlur stdDeviation="100.347" result="filter_276bf992-d085-80a6-8006-08c9d631fdae"/></filter></defs><ellipse cx="261.491" cy="299.39" rx="89.491" ry="89.39" transform="matrix(1.000000, 0.000000, 0.000000, 1.000000, 0.000000, 0.000000)" filter="url(#f)" style="fill: rgb(0, 0, 0); fill-opacity: 1;" class="fills"/><defs><filter id="g" x="-2.245" y="-2.248" width="5.49" height="5.495" filterUnits="objectBoundingBox" color-interpolation-filters="sRGB"><feFlood flood-opacity="0" result="BackgroundImageFix"/><feBlend in="SourceGraphic" in2="BackgroundImageFix" result="shape"/><feGaussianBlur stdDeviation="80.914" result="filter_276bf992-d085-80a6-8006-08c9d631fdae"/></filter></defs><ellipse cx="321.116" cy="112.445" rx="36.04" ry="35.999" transform="matrix(1.000000, 0.000000, 0.000000, 1.000000, 0.000000, 0.000000)" filter="url(#g)" style="fill: rgb(0, 0, 0); fill-opacity: 1;" class="fills"/><defs><filter id="h" x="-1.119" y="-1.126" width="3.239" height="3.252" filterUnits="objectBoundingBox" color-interpolation-filters="sRGB"><feFlood flood-opacity="0" result="BackgroundImageFix"/><feBlend in="SourceGraphic" in2="BackgroundImageFix" result="shape"/><feGaussianBlur stdDeviation="94.034" result="filter_276bf992-d085-80a6-8006-08c9c029947e"/></filter></defs><ellipse cx="184" cy="849.5" rx="84" ry="83.5" transform="matrix(1.000000, 0.000000, 0.000000, 1.000000, 0.000000, 0.000000)" filter="url(#h)" style="fill: rgb(88, 199, 243); fill-opacity: 1;" class="fills"/></g></g></g></g></svg>