<svg width="1920" xmlns="http://www.w3.org/2000/svg" height="1080" fill="none"><defs><clipPath id="a" class="frame-clip frame-clip-def"><rect rx="0" ry="0" width="1920" height="1080" transform="matrix(1.000000, 0.000000, 0.000000, 1.000000, 0.000000, 0.000000)"/></clipPath></defs><g class="frame-container-wrapper"><g class="frame-container-blur"><g clip-path="url(#a)" class="frame-container-shadows"><g class="fills"><rect rx="0" ry="0" width="1920" height="1080" transform="matrix(1.000000, 0.000000, 0.000000, 1.000000, 0.000000, 0.000000)" class="frame-background"/></g><g class="frame-children"><defs><filter id="b" x="-1.121" y="-1.124" width="3.242" height="3.248" filterUnits="objectBoundingBox" color-interpolation-filters="sRGB"><feFlood flood-opacity="0" result="BackgroundImageFix"/><feBlend in="SourceGraphic" in2="BackgroundImageFix" result="shape"/><feGaussianBlur stdDeviation="200.634" result="filter_276bf992-d085-80a6-8006-08c9c029947e"/></filter></defs><ellipse cx="1241" cy="271.5" rx="179" ry="178.5" transform="matrix(1.000000, 0.000000, 0.000000, 1.000000, 0.000000, 0.000000)" filter="url(#b)" style="fill: rgb(255, 238, 0); fill-opacity: 1;" class="fills"/><defs><filter id="c" x="-1.123" y="-1.123" width="3.246" height="3.246" filterUnits="objectBoundingBox" color-interpolation-filters="sRGB"><feFlood flood-opacity="0" result="BackgroundImageFix"/><feBlend in="SourceGraphic" in2="BackgroundImageFix" result="shape"/><feGaussianBlur stdDeviation="244.8" result="filter_276bf992-d085-80a6-8006-08c9c029947e"/></filter></defs><ellipse cx="1707" cy="-5" rx="218" ry="218" transform="matrix(1.000000, 0.000000, 0.000000, 1.000000, 0.000000, 0.000000)" filter="url(#c)" style="fill: rgb(236, 140, 120); fill-opacity: 1;" class="fills"/><defs><filter id="d" x="-.873" y="-.875" width="2.747" height="2.751" filterUnits="objectBoundingBox" color-interpolation-filters="sRGB"><feFlood flood-opacity="0" result="BackgroundImageFix"/><feBlend in="SourceGraphic" in2="BackgroundImageFix" result="shape"/><feGaussianBlur stdDeviation="185.593" result="filter_276bf992-d085-80a6-8006-08c9d631fdae"/></filter></defs><ellipse cx="283.5" cy="-95" rx="212.5" ry="212" transform="matrix(1.000000, 0.000000, 0.000000, 1.000000, 0.000000, 0.000000)" filter="url(#d)" style="fill: rgb(204, 0, 255); fill-opacity: 1;" class="fills"/><defs><filter id="e" x="-1.12" y="-1.123" width="3.24" height="3.246" filterUnits="objectBoundingBox" color-interpolation-filters="sRGB"><feFlood flood-opacity="0" result="BackgroundImageFix"/><feBlend in="SourceGraphic" in2="BackgroundImageFix" result="shape"/><feGaussianBlur stdDeviation="210.005" result="filter_276bf992-d085-80a6-8006-08c9d631fdae"/></filter></defs><ellipse cx="335.5" cy="397" rx="187.5" ry="187" transform="matrix(1.000000, 0.000000, 0.000000, 1.000000, 0.000000, 0.000000)" filter="url(#e)" style="fill: rgb(0, 255, 34); fill-opacity: 1;" class="fills"/><defs><filter id="f" x="-1.121" y="-1.123" width="3.243" height="3.245" filterUnits="objectBoundingBox" color-interpolation-filters="sRGB"><feFlood flood-opacity="0" result="BackgroundImageFix"/><feBlend in="SourceGraphic" in2="BackgroundImageFix" result="shape"/><feGaussianBlur stdDeviation="100.347" result="filter_276bf992-d085-80a6-8006-08c9d631fdae"/></filter></defs><ellipse cx="261.491" cy="299.39" rx="89.491" ry="89.39" transform="matrix(1.000000, 0.000000, 0.000000, 1.000000, 0.000000, 0.000000)" filter="url(#f)" style="fill: rgb(0, 0, 0); fill-opacity: 1;" class="fills"/><defs><filter id="g" x="-2.244" y="-2.251" width="5.488" height="5.502" filterUnits="objectBoundingBox" color-interpolation-filters="sRGB"><feFlood flood-opacity="0" result="BackgroundImageFix"/><feBlend in="SourceGraphic" in2="BackgroundImageFix" result="shape"/><feGaussianBlur stdDeviation="348.904" result="filter_276bf992-d085-80a6-8006-08c9d631fdae"/></filter></defs><ellipse cx="1093.5" cy="272" rx="155.5" ry="155" transform="matrix(1.000000, 0.000000, 0.000000, 1.000000, 0.000000, 0.000000)" filter="url(#g)" style="fill: rgb(0, 0, 0); fill-opacity: 1;" class="fills"/><defs><filter id="h" x="-1.118" y="-1.125" width="3.237" height="3.25" filterUnits="objectBoundingBox" color-interpolation-filters="sRGB"><feFlood flood-opacity="0" result="BackgroundImageFix"/><feBlend in="SourceGraphic" in2="BackgroundImageFix" result="shape"/><feGaussianBlur stdDeviation="189.547" result="filter_276bf992-d085-80a6-8006-08c9c029947e"/></filter></defs><ellipse cx="902.5" cy="467.5" rx="169.5" ry="168.5" transform="matrix(1.000000, 0.000000, 0.000000, 1.000000, 0.000000, 0.000000)" filter="url(#h)" style="fill: rgb(88, 199, 243); fill-opacity: 1;" class="fills"/></g></g></g></g></svg>