<svg width="14" height="14" viewBox="0 0 14 14" fill="none" xmlns="http://www.w3.org/2000/svg">
<path d="M6.68718 1.96438C6.77845 1.57759 6.82409 1.38419 6.89747 1.34063C6.96068 1.30312 7.03932 1.30312 7.10253 1.34063C7.17591 1.38419 7.22155 1.57759 7.31282 1.96438L7.75819 3.85176C7.92383 4.55371 8.00664 4.90468 8.18665 5.18931C8.34584 5.44101 8.55899 5.65416 8.81069 5.81335C9.09532 5.99335 9.44629 6.07617 10.1482 6.24181L12.0356 6.68718C12.4224 6.77845 12.6158 6.82409 12.6594 6.89747C12.6969 6.96068 12.6969 7.03932 12.6594 7.10253C12.6158 7.17591 12.4224 7.22155 12.0356 7.31282L10.1482 7.75819C9.44629 7.92382 9.09532 8.00664 8.81069 8.18665C8.55899 8.34584 8.34584 8.55899 8.18665 8.81069C8.00664 9.09532 7.92383 9.44629 7.75819 10.1482L7.31282 12.0356C7.22155 12.4224 7.17591 12.6158 7.10253 12.6594C7.03932 12.6969 6.96068 12.6969 6.89747 12.6594C6.82409 12.6158 6.77845 12.4224 6.68718 12.0356L6.24181 10.1482C6.07617 9.44629 5.99335 9.09532 5.81335 8.81069C5.65416 8.55899 5.44101 8.34584 5.18931 8.18665C4.90468 8.00664 4.55371 7.92383 3.85176 7.75819L1.96438 7.31282C1.57759 7.22155 1.38419 7.17591 1.34063 7.10253C1.30312 7.03932 1.30312 6.96068 1.34063 6.89747C1.38419 6.82409 1.57759 6.77845 1.96438 6.68718L3.85176 6.24181C4.55371 6.07617 4.90468 5.99335 5.18931 5.81335C5.44101 5.65416 5.65416 5.44101 5.81335 5.18931C5.99335 4.90468 6.07617 4.55371 6.24181 3.85176L6.68718 1.96438Z" fill="white"/>
</svg>
