<svg width="32" height="32" viewBox="0 0 32 32" fill="none" xmlns="http://www.w3.org/2000/svg">
<mask id="mask0" style="mask-type:alpha" maskUnits="userSpaceOnUse" x="0" y="0" width="32" height="32">
<path d="M0 0H32V31.9999H0V0Z" fill="white"/>
</mask>
<g mask="url(#mask0)">
<path d="M16 0C24.8367 0 32 7.16327 32 16C32 24.836 24.8367 32 16 32C7.16327 32 0 24.836 0 16C0 7.16327 7.16327 0 16 0Z" fill="#7D7F88"/>
</g>
<path d="M16.6879 16.0461C17.2579 16.0461 17.7266 15.8371 18.0939 15.4191C18.4739 15.0011 18.6639 14.4501 18.6639 13.7661V13.6521C18.6639 13.2721 18.5943 12.9174 18.4549 12.5881C18.3283 12.2587 18.1446 11.9737 17.9039 11.7331C17.6633 11.4797 17.3719 11.2834 17.0299 11.1441C16.6879 10.9921 16.3079 10.9161 15.8899 10.9161C14.9779 10.9161 14.2623 11.1947 13.7429 11.7521C13.2236 12.3094 12.9639 13.0441 12.9639 13.9561V14.7541H11.3679V13.8421C11.3679 13.2594 11.4629 12.7021 11.6529 12.1701C11.8556 11.6381 12.1469 11.1694 12.5269 10.7641C12.9069 10.3587 13.3819 10.0357 13.9519 9.79508C14.5219 9.55442 15.1806 9.43408 15.9279 9.43408C16.5613 9.43408 17.1439 9.54175 17.6759 9.75708C18.2079 9.97242 18.6639 10.2701 19.0439 10.6501C19.4239 11.0174 19.7216 11.4481 19.9369 11.9421C20.1523 12.4234 20.2599 12.9364 20.2599 13.4811V13.8231C20.2599 14.3171 20.1713 14.7921 19.9939 15.2481C19.8293 15.6914 19.5949 16.0777 19.2909 16.4071C18.9869 16.7364 18.6259 17.0024 18.2079 17.2051C17.8026 17.3951 17.3593 17.4901 16.8779 17.4901H16.6119C16.2573 17.4901 16.0799 17.6801 16.0799 18.0601V19.4661H14.5599V17.6801C14.5599 17.1987 14.7119 16.8061 15.0159 16.5021C15.3199 16.1981 15.7126 16.0461 16.1939 16.0461H16.6879ZM14.0089 21.9361C14.0089 21.5688 14.1356 21.2584 14.3889 21.0051C14.6549 20.7391 14.9716 20.6061 15.3389 20.6061C15.7063 20.6061 16.0166 20.7391 16.2699 21.0051C16.5359 21.2584 16.6689 21.5688 16.6689 21.9361C16.6689 22.3034 16.5359 22.6201 16.2699 22.8861C16.0166 23.1394 15.7063 23.2661 15.3389 23.2661C14.9716 23.2661 14.6549 23.1394 14.3889 22.8861C14.1356 22.6201 14.0089 22.3034 14.0089 21.9361Z" fill="white"/>
</svg>
